<?xml version="1.0" encoding="UTF-8"?>
<svg enable-background="new 0 0 1080 1004.7" version="1.1" viewBox="0 0 1080 1004.7" xml:space="preserve" xmlns="http://www.w3.org/2000/svg">
<style type="text/css">
	.st0{fill:#EBB566;}
	.st1{fill:#231F20;}
	.st2{fill:#FEFEFE;}
	.st3{display:none;}
	.st4{display:inline;fill:#EBB566;}
	.st5{display:inline;fill:#231F20;}
	.st6{display:inline;fill:#FEFEFE;}
	.st7{display:inline;}
</style>
	<polygon class="st0" points="705.7 710.2 654.6 710.2 654.1 710.2 539.8 908.3 425.9 710.6 425.9 710.2 425.9 710.2 374.3 710.2 229 710.2 397.1 749.7 539.8 997.3 682.9 749.7 851.5 710.2"/>
	<path class="st1" d="m566.9 161.2c1.3 1.3 2.1 3 2.6 4.7 0 0.9 0.4 2.1 0.4 3 2.1 10.3 6.9 18.9 15.9 24.5 0.9 0.9 2.1 1.3 3 2.1 2.1 2.6 4.7 3 7.7 2.6s6-1.3 8.6-2.6c4.7-2.1 9.9-4.7 14.6-6.9 0.4-0.4 1.3-0.4 3.4-0.9-10.3 9-21.1 13.8-32.7 16.8-3.4 7.3-6 14.6-7.3 21.9-0.4 2.1-0.4 4.3-0.4 6.4 0.4 7.7 4.7 12 12.5 12.9 8.6 0.9 17.2 0 25.4-2.6 9.9-3.4 18.9-8.6 27.5-15 5.6-4.3 11.2-9 16.3-13.8 1.7-1.7 3.4-2.1 5.6-2.1s4.3 0.4 6.4 0.4h1.7v-0.9c0-0.4-0.4-0.4-0.9-0.9-3-2.1-6.4-3-10.3-2.1-3 0.4-5.6-0.4-8.2-2.1-3.4-2.6-6-6-7.3-9.9-1.7-5.2-1.3-10.3-0.4-15.5 0.4-1.3 0-2.6 1.7-3.4 3.9 2.1 5.6 6 8.6 9.9 0-1.3 0-2.1-0.4-3-1.3-3.4-3-6.4-4.3-9.9-1.3-3-1.3-4.7 0.9-8.2 4.7 2.6 6.9 7.3 9 13.3 0.9-10.7-3-19.3-7.7-27.5 3.9-4.3 6-9.5 6.4-15.5 1.3 0 2.6-0.4 3.4 0 0.9 0 2.1 0.4 3 0.9 1.3 0.4 2.1 1.3 3.4 1.7 0.9 0.4 1.3 2.1 3 0.9-1.3-1.7-2.6-3.4-3.9-5.2-1.7-1.7-3.4-3-5.2-3.9-1.7-1.3-3.9-1.7-5.6-2.6 0-7.3-0.4-14.2-0.4-21.5v-0.2s0.4 0 0.9-0.4c5.2 0.9 7.3 5.2 10.3 9.9-0.4-3.9-0.9-6.9-2.6-9-1.3-2.1-3-4.3-5.2-6.4-2.1-1.7-4.7-3.4-6.9-4.7 0.4-1.3 0.9-2.6 0.9-3.9 3.9-13.8-3-26.7-12-32.7-3.9-2.6-8.2-4.3-12.9-5.2-4.7-0.4-6.9 0.9-9 5.2-0.4 0.9-0.9 1.7-1.3 2.6-1.3-0.4-2.6-0.9-3.9-1.7-21.9-9-48.1 3.4-54.6 26.2-2.1 6.9-3.4 13.8-3.9 20.6-0.9 9-1.3 18.1 0.9 26.7 0.9 4.3 0.4 8.6-1.7 12.5-1.7 3-1.3 6 0 8.6 2.4 2.9 3.7 4.2 5 5.9z"/>
	<path class="st2" d="m527.3 438c3.9 0 7.3-0.9 10.3-3 2.6-1.7 4.3-3.9 4.3-7.7 0-3 0.4-5.6 1.3-8.6 2.1-6.4 1.7-13.3 0.9-19.8 0-0.9 0-1.7-1.3-2.1-5.6 9.5-10.3 19.3-18.1 27.5 0.9 4.7 0.9 9.4 2.6 13.7z"/>
			<path class="st0" d="m480.5 65.8c0 1.3-0.4 3-0.4 4.3-0.4 1.7-0.9 3.4-1.3 5.2 5.2 2.6 7.7 7.3 7.7 13.3-0.4 8.2-1.7 15-3.9 21.9h73.1v-3c0.4-6.9 2.1-14.2 4.3-22.4 2.1-7.3 6-14.2 11.2-19.8h-90.7v0.5z"/>
			<path class="st0" d="m360.1 110.5c-1.7-3.9-2.6-7.7-3.4-12.5-0.4-3-0.4-6-0.4-9.5 0-6 3.4-10.3 8.6-12.5v-10.3h-42.6c-4.7 3.4-9.9 5.2-15.9 5.2h-0.9-3.9-4.3-0.4c-4.7 0-8.6-1.7-11.6-5.2h-19.8c-6.4 5.6-11.2 10.7-15.5 16.3-0.9 0.9-1.3 1.7-2.1 3v0.4c-0.9 1.3-1.3 2.6-1.7 3.9-0.4 6-1.7 13.8-4.3 21.5h118.2v-0.3z"/>
			<path class="st0" d="m138.7 110.5c3.9-6.4 9-13.3 16.8-18.1l33.1-26.2h-186.6l218.4 378.3-126.4 37.4h199.5l-214.1-371 59.3-0.4z"/>
			<path class="st0" d="m1078 65.8h-412.3c4.3 7.7 6.4 17.2 4.3 27.1 0.9 0.9 2.1 1.3 3 2.6 3 2.6 4.7 5.6 6.4 7.7 1.3 2.1 2.6 4.7 3 7.3h318.1l-214.1 371h197.8l-124.7-37 218.5-378.7z"/>
	<path class="st1" d="m151.6 180.1c2.6 1.3 4.7 2.1 7.7 2.6 4.3 0.9 8.6 0.9 12.9 0.9h5.6c-0.4 0.4-0.9 0.9-1.7 0.9-3.9 0.9-7.7 1.3-11.6 1.3h-5.2c0.9 2.6 2.1 3.9 3.4 5.2 11.2 14.2 24.9 25.4 40.4 34.4 16.8 9.5 34.8 14.6 53.7 16.3 3 0.4 6.4 0.4 9.5-0.4 2.6-0.4 5.6-0.4 8.2-0.4 4.7 0.4 9 2.1 12.5 6-3.9-0.9-7.7-2.1-11.2-3-3.9-0.4-7.3-0.4-11.2 1.7 0 1.3-0.4 2.1-0.4 3.4-0.4 7.3 0.9 14.2 2.6 21.5 3.9 13.3 10.3 25.4 17.6 36.5 0.9 0.9 1.7 2.1 2.6 3 8.6 7.7 15.9 16.8 21.9 26.7 4.3 7.3 8.6 14.6 12.9 21.9 3 5.2 5.2 10.7 6 16.8 2.6 11.6 2.6 23.2 2.6 34.8-0.4 9.5-0.9 18.5-1.7 27.9-0.4 3.4 0.4 6.9 2.6 9.9 1.3 1.7 2.1 3.4 3.4 4.7 3 3.4 6 6.4 9 9.9 0.4 0.9 1.7 1.3 1.7 3-5.2-3.4-9-7.3-14.2-10.7-0.4 1.7-0.4 2.6-0.4 3.4-0.4 6.4-1.3 12.5-1.7 18.9 0 1.7-0.4 3-1.3 4.3h15.9c0-0.4-0.4-0.9-0.4-1.3-0.4-1.3-0.9-2.6-0.9-3.4 1.3-0.9 1.7 0.4 2.1 0.9 1.3 1.7 3 3 4.3 3.9h135c0.9-0.9 2.1-2.1 3.4-3-0.4 1.7-0.4 2.6-0.9 3v0.4h11.6c-0.9-1.7-1.7-3.4-2.1-5.2-3.4-10.7-7.7-21.1-12.9-31-3-6-5.6-12.5-7.7-18.9-6.9-19.3-12-39.5-16.3-59.8-1.3-5.6-2.1-10.7-1.3-16.3 2.6-18.1 7.7-35.3 16.3-51.6 1.3-2.6 3-4.3 5.2-6 12-8.2 18.1-19.3 18.5-33.5 0-3.9 0.9-7.7 2.6-11.6s3.9-7.7 6.4-11.2c3.4-5.6 8.2-9.9 12.9-14.6 6.4-6 13.8-11.2 21.1-15.9 0.9-0.4 2.1-0.4 1.7-2.1-3-0.4-6.4-1.3-9.5-1.7-10.7-2.6-21.1-6.9-31.4-11.6-11.2-5.2-21.9-11.6-32.7-18.1-1.3-0.9-3-1.7-5.2-3-0.9 3.4 0 6.4-0.4 9.9-2.1-2.6-1.7-5.2-2.1-7.7-1.3-8.2-1.3-16.3 0.9-24.5 0.9-3.4 1.3-7.3 1.7-11.2 0.4-5.2 0.9-10.7 1.3-16.3 3-2.6 5.6-5.6 7.3-9.5 3-7.3 4.3-14.6 4.3-21.9 0-3.4-1.7-5.6-4.7-6-1.3-0.4-2.6-0.4-4.3-0.4-0.4-2.6 0.4-4.3 0.9-6.4 0.4-2.1 1.3-4.3 1.7-6.4 1.3-7.3 1.3-15 0-22.4-0.4-1.7-0.9-3.9-1.7-5.6-3-6-6.9-11.2-12-15.5-2.1-2.1-4.3-4.3-6-6.9-2.6-3.9-6-6.9-9.9-9.9-0.4-0.4-1.3-0.4-1.7-0.9-0.4 1.3-0.4 1.7-0.4 3-2.6-0.9-5.2-2.1-8.2-3-2.6-0.9-5.2-1.7-7.7-2.1-2.6-0.4-5.6-1.3-8.2-0.9 0 0.9 0.4 1.7 0.4 2.6-11.2-0.4-21.1 2.6-30.1 8.6 0.4 0.9 0.9 1.3 1.3 1.7-5.2 3-9.5 6.4-12.5 11.6-0.4 0.9-1.3 1.3 0 2.1 2.1 0 3.4-2.1 5.6-1.3-1.3 1.3-2.1 2.6-3 3.9s-1.3 3-1.7 4.3c-1.3 7.3-2.1 14.6-1.7 21.9v19.8c0 0.9-0.4 2.1-0.4 3-0.9 0-1.3 0-1.7-0.4h-0.5c-3.4 0-5.2 1.7-5.6 5.2 0 2.6 0 5.6 0.4 8.2 1.3 9 4.3 16.8 12 22.4 0.4 0.4 0.9 0.9 0.9 1.3v12c0.9 12 5.6 21.5 17.2 26.7 1.3 0.9 3 1.7 4.3 2.6-5.6-0.4-9.9-3-14.6-5.2l-2.1 2.1c-3.4 3.9-7.3 6.9-12 9-3.9 2.1-8.2 3.4-12.5 5.2-1.3 0.4-2.1 0.9-3.4 1.3-0.4 3.9 0.9 6.9 3 9.9 2.6 3.4 5.6 6.4 9 9 6 4.7 12.9 8.6 19.8 12.5 1.7 0.9 3 2.1 4.7 3-5.6-1.7-10.7-4.3-15.5-7.3-7.7-4.3-14.6-9.9-20.2-16.8-1.3-1.7-2.6-3.9-3.4-6-1.7-8.6-7.3-14.2-14.6-18.5-4.3-2.6-9-4.3-14.2-5.6-15-3.9-30.1-4.3-45.6-3.9-0.9 0-1.3 0.4-2.1 0.4 0.9 4.3 2.1 8.2 2.1 13.3-1.3-2.6-2.1-4.3-3-5.6-6.4-13.8-22.4-25.4-43-22.4-4.3 0.4-8.6 1.3-12.9 2.1-7.7 1.7-15 5.2-19.8 11.6 0 0-0.4 0-0.9 0.4 0-0.4 0-1.3 0.4-1.7 2.6-5.2 6-9 11.2-11.2 8.6-3.4 14.6-9.9 18.9-17.6 2.1-3.9 3.4-7.7 5.2-12 2.1-6.4 3.4-13.3 3.9-20.2 0.4-3 1.3-5.6 3-7.7 0.9-1.3 1.7-2.1 2.6-3.4 7.3-9.5 16.3-17.2 25.4-24.9 4.7-3.9 9.9-4.7 15.9-3 0.4 0.9 0.4 1.3 0.4 2.1 0.4 2.1 0.9 3.9 3 5.2 1.3 0.9 1.7 2.1 2.6 3.4 1.3 2.6 3.4 3.4 6 3.4h8.6c6.9 0 12-2.6 16.3-8.2 2.6-3.4 4.3-7.3 5.2-11.2 3.4-10.7-2.6-19.3-13.8-19.8-14.2-0.4-28.4-0.9-42.6-1.3h-6.9c-6 0.4-11.2 2.1-15.9 6-9 7.7-18.5 15-27.9 22.4-19.8 15.9-40 31.8-59.8 47.7-8.6 5.2-13.8 13.3-18.1 22.4-2.6 5.6-4.3 10.7-6.9 16.3-1.3 3.4-2.6 6.4-3.9 9.9-0.9 2.1-1.7 4.7-2.1 7.3-0.4 1.7-0.4 3.4 0.9 5.2 6.1 9.4 13 16.7 22 21zm282.9 187c-3.4 1.7-6.9 3.4-10.3 5.2-1.3 3-1.3 6.9-1.3 10.3 0 3 0.4 6 0.4 9 0 3.4 2.1 5.2 4.7 6.4 2.1 0.9 4.3 0.9 6.4 1.7-1.7 2.1-3.9 2.1-6 2.6-1.7 0.4-3.4 0.4-5.6 0.9-1.3 6-1.3 11.2-1.3 16.8 0 1.7 0.9 3 2.6 3.9 2.1 0.9 3.9 1.3 6.4 2.1-1.3 0.4-2.1 0.9-3 0.9h-6.4c-0.9 1.7-1.7 3.4-2.6 5.2-2.1-1.3-1.3-3.9-3-5.2s-4.7 0-6.4-2.1c2.6-0.9 4.7-2.1 7.3-3 0.4-5.6 0-10.7 0-15.9-3-2.1-5.6-4.3-6-8.6h6.9c0.4-1.3 0.9-2.6 0.9-3.9 0.4-8.2-1.7-15.5-4.7-22.8-8.6-2.6-9-3-11.6-7.3 4.3-0.4 8.6-0.4 12-4.3v-15.5c-2.1-1.3-4.3-2.6-6.9-4.3-2.1-1.3-4.7-2.6-6.9-5.2 6.9-0.4 9.5-4.7 11.2-10.3 2.1-8.6 3.4-16.8 4.3-25.4 0-0.9 0.4-2.1 0.4-3 1.3 0 1.3 0.9 1.3 1.3 0.4 5.2 0.9 9.9 1.3 15 0.4 2.1 0.4 4.7 0.9 6.9 0.4 5.2 3 9 7.3 12 3 2.6 6.9 3.9 10.7 5.2 1.7 0.4 3 0.9 4.7 1.3-3 3-4.3 3.4-21.5 9.5-1.3 6-2.1 11.6-0.4 18.1 2.1 1.3 4.7 1.3 7.3 1.3h6.9c1.3 0.8 0.8 0.8 0 1.2zm36.5 55c1.3 4.7 3 9 4.7 13.8 0.4 1.7 0.9 3 0.9 4.7 0 5.6-0.9 10.7-3.4 15.9-3 6-7.3 10.7-13.3 13.3h-1.3c0.4-1.7 1.7-3 2.6-3.9 3.9-5.6 6.9-11.2 8.6-18.1 0.4-0.9 0.4-2.1 0.9-3 0.9-3.4 0.4-6.4-1.7-9-1.7-2.1-3-5.2-4.3-7.3-2.1-0.9-4.3 0-6.4 0-4.7 0.4-9.5 0.4-13.8-0.4-1.7-0.4-3.4-0.9-5.6-3.4h9.5c3.4 0 6.9-0.9 9.9-2.6s5.2-4.3 4.7-8.2c0-4.3-0.4-7.7-2.6-11.6-1.3 0.4-2.6 0.4-3.9 0.9-3.9 0.9-7.7 0.4-11.2-1.7-0.4-0.4-0.9-0.9-1.7-2.1 6.4 1.3 11.6 0.4 16.8-3.4 0.4-4.3-1.7-8.6-2.1-12.9-0.9-4.3-2.1-8.6-3-13.3-3.4-0.9-7.7-0.4-11.2-3.4 3.4-0.4 6.4 0 9-2.1 0.4-3.4 0-6.9 0-10.3s0-7.3 0-11.2c-0.9-0.4-2.1-1.3-3.4-2.1h8.2c-0.4 2.6-0.4 4.3-0.9 6.4-0.9 6.9-0.9 13.3 0.9 19.8 3.2 17.8 7.5 36.8 13.1 55.2zm-33.5-220.1c4.3 2.1 8.6 3.9 13.3 3.4 1.7 0 3.4-0.4 5.2-0.9 3.4-1.7 6.9-2.1 10.3-2.6 9-1.7 18.1-2.1 27.5-1.7 3 0 5.6 0.9 8.6 2.1-5.2 0.4-9.9 0.4-15 1.3-4.7 0.9-9.5 1.7-14.2 3s-9.5 2.6-14.2 5.2c1.7 1.7 3.4 2.1 5.2 3.4s3.4 2.1 4.7 3.4l4.7 4.7h-2.6c-9.5-4.3-19.8-5.6-30.1-5.6-0.4 0-0.9 0-2.1-0.4 3-1.7 5.2-3.4 7.7-5.2-0.9-1.7-2.1-1.3-3.4-1.7s-2.1-0.9-3.4-1.7c-1.3-0.9-2.6-1.7-3.4-2.6-0.9-0.9-1.7-1.7-2.6-3-0.4-0.9-0.9-2.1-1.7-4.3 2.5 1.5 4.2 2.4 5.5 3.2zm-19.4 24.1c1.3-0.9 3-1.7 4.7-2.6s3.4-1.3 6-1.7c-9 9-9.9 11.6-7.3 20.2 5.2-2.6 9.9-4.7 15.9-3.9 1.7 0.4 3.9 0 5.6 2.1-2.1 0.4-3.9 1.3-5.6 1.7-3.9 1.3-7.7 2.6-11.2 5.2-3.4 2.6-6 5.6-6.9 9.9-0.4 1.7-0.4 3.9 0.9 5.6 10.7-0.4 16.3 3.9 17.2 12.5-1.7-1.3-3-2.1-4.3-3-3-2.1-6-3.4-9.9-3-1.7 0-3.4 0.9-4.7 2.1-0.9 0.9-1.7 2.1-2.6 3-5.2 5.2-10.7 7.3-18.5 6.4 2.1-0.9 3.9-1.3 5.2-2.1 4.7-1.7 9-4.3 12-8.6 1.7-3 2.6-5.6 1.3-9-2.6-8.2-6.9-14.6-13.8-19.3-1.3-0.9-2.6-1.7-3.9-2.6 0-1.3 0.9-1.3 1.7-1.3 4.3 0 8.6 1.3 12 4.3 0.9 0.9 1.7 1.3 2.6 2.6 0.4-1.3 0.9-1.7 0.9-2.6 0.4-5.2 0.4-10.3-1.3-15.5-0.4-1.3-0.4-2.1-0.4-3.4 1.8-0.4 1.8 2.1 4.4 3zm-5.1-3.9c0-0.4-0.4-0.9-0.4-0.9 0.4 0.5 0.4 0.5 0.4 0.9zm-14.6-53.3c1.3 3.4 2.1 6.4 3.4 9.9 1.3 3 3.4 6 5.2 8.6 2.1 3 4.3 5.6 6.9 9-10.7-2.1-19.8-13.8-21.5-26.7 2.9-1.2 2.9-1.2 6-0.8zm-101.5 47.8c0.9 5.2 1.7 9.9 3 15 1.7 6 4.3 11.6 8.6 15.9 3.4 3.9 6 8.6 7.7 13.3 3.9 11.6 7.7 22.8 12.9 33.5 3.4 7.3 6.9 14.6 11.6 21.5 3.4 5.2 7.3 10.3 12.5 14.2 3.4 2.6 7.3 4.7 11.6 5.6 2.1 0.4 4.7 0.9 6.9 0 5.6-1.3 11.2-1.7 16.8-1.3 4.7 0.4 9 1.3 12.9 4.3 0 1.3-0.9 1.3-1.3 1.3-3.9 0-7.7-0.4-11.2 0-3.4 0-6.9 0.4-10.3 1.3-2.1 0.4-4.3 1.3-6.4 2.6-4.3 2.1-6 6-6 10.7 0 2.1 0 3.9 1.3 6 7.7-0.9 15.5-0.9 22.8 3.4h-3.9c-5.2 0-9.9 1.3-14.6 3.4-4.3 2.1-6.9 5.6-8.2 10.3-1.3 6.4 0 12 4.7 16.8 2.6 2.6 5.6 3.4 9.5 3.9 6.9 0.4 14.2-0.4 21.1-1.7 1.7-0.4 3.4-0.4 5.2-0.9 0 1.3-1.3 1.3-1.7 1.7-10.3 4.7-21.1 6.9-31.8 5.6-3.4-0.4-6 1.3-7.7 3.9-2.1 2.6-1.7 5.6-0.4 8.2 2.6 4.7 6 7.7 11.6 9s11.6 1.3 17.2 0.4c5.2-0.9 9.9-1.7 15.5-2.6-1.3 0.9-1.7 1.7-2.6 2.1-9.9 5.2-20.2 6.4-31.4 4.7-1.7-0.4-3-0.4-5.2-0.9-1.3 7.7 1.3 14.6 3.9 21.5-1.3 0.4-1.7-0.4-2.1-0.9-6.9-7.3-10.7-16.3-11.6-26.7v-3.9s0-0.4-0.4-0.9c-4.7-2.6-8.6-6.4-11.2-12.9 3.9 2.1 7.3 5.2 11.6 2.1 0.4-3.4-0.4-6.9-1.3-9.9 0-1.3-1.7-2.1-2.6-3.4-4.3-5.2-8.2-10.7-10.7-17.2 1.3-0.9 1.7 0.4 2.1 0.9 1.7 1.7 3.9 3.4 5.6 5.2 0.4 0.4 1.3 0.9 2.6 1.7-0.9-7.3-2.6-13.8-1.3-20.6-4.7-4.3-9.9-8.6-12.5-14.6 1.3-1.3 1.7 0 2.1 0.4 4.3 3.9 9 6.4 14.2 8.6 0.9 0.4 1.7 0.4 3 0.9 0.4-3.9 1.3-7.7 1.7-11.2-0.4-0.9-0.9-1.3-1.3-1.7-12.9-12-22.8-27.1-30.5-43-6.9-13.8-12-27.9-16.8-42.6-0.9-3-2.1-5.6-4.3-8.2-6.9-8.2-9.9-18.1-9.9-28.4-2.3-1.7-1.9-3.9-1-6.4z"/>
	<path class="st1" d="m504.5 257.1c-0.4 0.9-0.4 2.1-0.9 3-0.9 7.7-3.9 15-7.7 21.5-3.4 5.6-7.3 10.7-12 15.5-2.6 2.6-4.3 5.2-6 8.2-1.3 2.1-2.1 4.3-3.4 6.9-6 13.8-9.5 28.4-12 43-0.4 1.7 0 3.4 0 4.7 1.3 9 2.6 18.1 4.7 27.1 4.7 19.8 12 38.7 21.5 56.7 1.3 2.1 2.1 4.3 3 6.9 3 9 6.9 17.6 11.2 26.2 0.9 1.3 1.3 3 2.1 4.3h54.2c-3.9-4.7-7.3-10.3-10.3-15.9v-1.3c2.1 0.4 3 2.1 4.3 3.4 1.3 0.9 2.6 2.1 3.9 3 1.7-0.4 1.3-1.3 1.3-2.1-0.4-4.3-0.9-8.6 0.4-12.9 0.4 0 0.4 0.4 0.4 0.4 0.4 1.7 0.9 3.9 1.3 6 1.3 6.9 3.9 13.8 6.9 19.8h49.4c-0.4-1.7 0.4-3.4 0.9-5.2 2.1-4.7 5.2-9 9.5-12.5 1.7-1.3 3-2.6 4.7-3.9 7.7-6.9 16.3-10.3 26.2-11.2 4.3-0.4 8.6 0 12.9 0h5.2c2.6-10.3-0.4-29.2-5.6-38.3-1.3 0.9-2.6 1.7-3.9 3v-2.1c2.6-4.7 3.9-9.9 4.7-15.5 2.6-12 6.9-24.1 11.6-35.3 8.2-18.9 19.3-35.7 33.1-50.7 1.3-1.3 2.1-2.6 3.4-3.9-0.9-2.1-2.6-3.4-3.9-5.2-1.7-1.7-3.4-3.4-4.7-5.2-1.3-1.3-3-2.6-3.9-5.2 0.9 0.4 1.7 0.9 2.1 1.3 5.2 4.3 10.7 8.2 15.9 12.9 4.7 3.9 9 8.6 13.3 12.9 3.4 3.4 6 6.9 8.6 11.2 1.7 3.4 4.7 6.9 7.3 9.9 8.2 8.6 18.1 15.5 27.9 21.9 0.4 0 0.9 0 1.3 0.4 0.9-1.3 2.1-2.6 3.4-3.9 0.9 0.9 0 2.1-0.4 2.6-4.3 9-9.5 17.6-15 26.2-9.9 13.8-21.1 26.7-33.1 38.3-1.3 1.3-2.6 2.1-4.3 3.4-8.6 6.9-17.6 13.8-26.2 20.6-1.7 1.3-3 1.7-4.7 1.7-5.6-0.4-10.7 0-15.9 1.3-2.1 0.4-4.7 0.9-6.9 0.4-8.6-0.9-16.8-0.9-25.4 0.9-3.4 0.9-6.4 1.7-9.5 3.4-4.7 2.6-9 5.2-13.3 7.7-2.1 1.3-3.9 3-5.6 4.7s-3 3.9-2.6 6.9c0.4 2.1-0.4 3.4-1.7 5.2l-0.4 0.4h99.3c0.9-1.3 1.7-2.1 2.6-3.9 3-5.6 7.3-10.3 12.5-13.8 6-4.3 12.5-7.7 19.3-10.3 6.9-2.6 12.9-6 18.9-9.9s12-8.6 18.1-12.5c3-2.1 5.2-4.3 7.3-6.9 10.3-12.9 21.1-25.4 31.4-38.3 1.7-2.1 3.4-4.3 6-6 3.4-2.6 5.2-6 4.7-10.3-0.4-2.6-0.9-5.2-1.7-7.3-4.7-11.2-9.9-22.4-16.8-32.7-8.6-13.3-18.5-24.9-30.5-34.8-2.1-1.7-3.9-3-6.4-3.4-6.4-1.3-11.6-5.2-16.8-9.5-1.3-1.3-2.1-2.6-2.1-4.7-0.9-7.3-4.3-13.8-8.6-19.3-3.4-4.3-7.7-8.2-12-11.2-6.4-4.7-13.3-8.2-20.6-11.6-6.9-3-13.3-6.4-19.8-9.5-4.7-2.1-9.5-4.7-14.2-6.9-1.3-0.4-2.1-0.9-3.4-1.3-0.4 0.4-1.3 0.9-1.3 1.3-7.7 11.2-14.2 22.8-18.1 36.1-4.3 15-3.9 29.7 2.6 43.8 0.4 0.9 0.4 1.7 0.9 2.6-2.1 0.4-3.9 0.4-5.6 0.9-3.9 0.4-7.3 1.7-10.3 4.3-0.4 0.4-1.7 0.4-1.3 1.7 1.3-0.4 2.6-0.9 4.3-1.3 3.4-1.3 6.9-0.9 9.9 0 2.6 0.9 4.3 2.1 4.7 5.2 1.7 8.6 5.6 15.9 11.6 22.4 0.9 0.9 1.3 1.7 2.1 2.6-1.3 1.3-2.1 3-3.4 4.3s-2.1 3-4.3 3.9c-6.9-3-14.2-6-22.4-7.3-7.7-1.7-15.9-2.6-24.5-2.1 2.1 1.3 3.9 1.3 6 1.7 12 1.7 23.6 6 34.4 12.5 1.3 0.9 2.1 1.7 3.4 2.6 0 4.3 0.4 8.2-0.4 12-0.9 0-0.9 0.4-1.3 0-1.3-0.4-2.6-0.4-3.4-0.9-29.2-8.6-59.8-13.3-89.8-16.3-10.7-0.9-21.5-1.7-32.2-2.1-2.1 0-3.9-0.9-5.6-2.6-3.9-3.9-6.9-8.2-9.9-12.9-8.6-14.2-9.9-28.8-3.9-43.8 0.9-2.1 1.7-3.9 2.6-6-0.9-1.7-1.7-3.4-2.1-5.2-0.9-1.7-1.3-3.4-0.9-5.2 0.9 0 1.3 0.9 1.7 1.3 1.3 1.3 2.6 3 4.7 3.4 0.4-0.9 1.3-1.3 1.7-1.7 14.6-21.5 28.8-43 43.4-64.5 0.4-0.4 0.4-1.3 0.4-2.1h-2.1c-8.2 1.3-16.8 2.6-24.9 4.3-2.1 0.4-4.7 0.9-6.9 1.3-22.8 7.7-37 23.6-44.3 46.4zm142.8 182.2c-5.6 5.6-11.2 10.7-17.6 15-1.7 1.3-3.4 2.6-5.6 3-6.9 3-12.5 7.7-16.3 14.2-0.4 0.9-1.3 1.7-2.6 3.4 0-2.1 0-3 0.4-3.4 1.3-4.7 3.9-9.5 7.3-12.9 2.1-1.7 3.4-4.3 4.3-6.9 3.4-7.7 6-15.9 6.4-24.5v-9.5c2.6 3.4 3.9 9.9 3.9 16.3-0.4 5.6-2.1 11.2-4.3 16.3 1.3 0.9 2.1 0.4 2.6 0 6.4-3.4 12.9-7.3 18.9-11.6 0.9-0.4 1.7-1.3 2.6-1.7 0 0 0.4 0 0.9 0.4-0.1 1.1-0.5 1.5-0.9 1.9zm-25-62.7c3-2.1 5.2-4.3 6.9-7.3 1.7-2.6 3-5.6 3.9-9-1.7-2.1-4.7-1.7-6.9-3.4 4.3-0.9 8.6-0.9 13.3 0-1.7 4.7-3.9 9-4.3 14.2 1.3 0.9 2.1 0 3-0.4 3-1.7 6-3.4 9-5.2 0.4-0.4 1.3-0.4 2.6-0.9-3.9 6-9 9.5-14.2 12.5-1.7 5.6-1.7 9-0.9 14.6 1.3-0.4 2.6-0.4 3.4-1.3 5.6-3 10.7-6.4 16.3-9.5 1.7-0.9 3-1.7 4.7-2.6-10.7 14.2-28.4 24.9-39.1 25.4 2.1-2.6 4.3-5.2 6-7.7 0.4-0.9 0.9-1.7 1.3-2.1 0.4-0.9 0.9-1.7 0.9-2.6 0.4-0.9 0.4-1.7 0.9-2.6 0.4-0.9 0.4-2.1 0.4-3s0-1.7 0-2.6v-3.9c0-0.4 0-0.9-0.4-1.7 0-0.4-0.4-0.4-0.9-1.3-4.7 2.1-9 4.7-15 5.2 3.5-1.4 6.5-3.1 9.1-4.8zm-47.3 25.8c-1.3-0.9-2.6-1.3-4.3-2.1-4.7-2.6-8.2-6.4-10.3-11.2-0.4-0.4 0-1.3-0.4-2.6 3.9 3.4 7.7 6.4 13.3 6.4-0.4-5.6-1.3-10.7-2.1-16.3-5.2-2.6-9.9-5.6-13.3-10.7 4.7 1.3 8.6 4.3 14.2 3.9 0.9-6.4 0-12.9 0.4-18.9 4.3-0.9 11.2 0 17.2 1.3 0 0.4-0.4 0.9-0.4 0.9-3 0.4-6.4 0.4-9.5 0.4-2.1 1.7-3 3.9-3 6.4 0 2.1 0.4 3.9 1.7 5.6s3 2.6 5.2 2.1c1.7-0.4 3.4-0.4 5.2-0.9 5.2-0.9 10.3-0.4 16.3 1.3-3.9 0.4-6.4 0.9-9.5 1.3-3.9 0.4-7.3 2.1-10.7 3.9-3.9 1.7-5.6 5.2-6 9-0.4 3-0.4 5.6 1.3 8.6 4.3-3 8.6-5.6 14.2-5.2 2.6 0.4 4.7 0.4 6.9 2.1 0 1.3-0.9 0.9-1.7 0.9h-1.7c-6.9 0.4-12 3.4-15.9 9-2.6 3.4-2.1 6.4 0.4 9.9 3.4 4.3 8.2 6.9 13.8 7.3 3.4 0 6.9 0 10.3-0.9 1.7-0.4 3.4-0.9 6-1.3-1.3 1.3-1.7 2.1-2.6 2.6-6.4 4.3-13.8 5.6-21.1 2.1-8.6-3.9-17.6-3-26.2-1.3-4.3 6-5.2 12.9-5.6 21.1-2.6-4.3-2.6-7.7-2.6-11.6 0-5.6 0.9-10.7 3.9-15.5 5.2-0.9 10.3 0.9 15.5-1.3 0-0.9 0.4-2.1 0.4-3 0.7-1.6 0.7-2.5 0.7-3.3zm-51.1-79.6c5.6 9.5 12.9 17.6 20.6 25.4l1.3 1.3c-0.4 2.1-0.9 4.3-0.9 6.9-0.4 6.9 0 13.3 1.3 19.8 0.4 1.7 1.3 3.4 2.1 4.7 6 8.6 6.4 18.1 3 27.9-2.1 6-3.9 12-4.7 18.1-1.3 7.3-0.9 14.2 0.4 21.5 0 0.9 0.4 1.3 0.4 2.1 0 0 0 0.4-0.4 0.9-4.7 2.6-10.3 3.4-15.9 3.4-3 0-5.2-1.3-6.9-4.3-6-9.5-10.3-19.8-12.9-30.5-3-12.5-4.3-25.4-3.9-38.3 0-5.6 0-11.2-0.9-16.8-0.9-4.7-2.6-9.5-5.2-13.8 0.9-0.9 1.7-1.3 2.6-1.7 3-1.7 5.6-4.3 7.7-7.3 3-4.7 5.6-9 8.2-13.8 0.9-1.7 1.7-3.9 3-6 0.2 0.1 1.1 0.1 1.1 0.5z"/>
	<path class="st2" d="m510.6 354.2c0.9 2.1 1.3 4.3 2.1 6.4 0.9 2.1 0.4 4.7 1.7 7.3 3.4-3.4 14.2-16.8 16.8-20.6-1.3-1.7-2.6-3.4-3.4-5.2-1.3-1.7-2.6-3.9-3.9-5.6-5.6 11.7-5.6 11.7-13.3 17.7z"/>
		<path class="st1" d="m288.3 682.2-6.4-9h-7.3v9h-7.3v-33.1h14.2c9 0 14.2 4.7 14.2 12 0 5.2-2.6 8.6-6.9 10.3l7.3 10.7h-7.8zm-7.3-27.1h-6.4v11.6h6.4c4.7 0 6.9-2.1 6.9-5.6 0-3.8-2.2-6-6.9-6z"/>
		<path class="st1" d="m331.7 656.9v25.4h-6.9v-3c-2.1 2.1-4.7 3.4-7.7 3.4-6.4 0-10.7-3.4-10.7-11.6v-14.2h7.3v13.3c0 4.3 1.7 6 5.2 6 3.4 0 6-2.1 6-6.9v-12.5l6.8 0.1z"/>
		<path class="st1" d="M343.3,647h7.3v35.3h-7.3V647z"/>
		<path class="st1" d="m387.2 671.5h-19.3c0.9 3 3.4 5.2 7.3 5.2 2.6 0 4.7-0.9 6.4-2.6l3.9 4.3c-2.1 2.6-6 4.3-10.3 4.3-8.6 0-14.6-5.6-14.6-12.9 0-7.7 6-12.9 13.8-12.9 7.3 0 13.3 5.2 13.3 13.3-0.5 0-0.5 0.8-0.5 1.3zm-19.4-4.3h12.5c-0.4-3-3-5.2-6.4-5.2-3.5 0-5.6 1.7-6.1 5.2z"/>
		<path class="st1" d="m437 674.9h-15l-3 6.9h-7.7l14.6-33.1h7.7l14.6 33.1h-8.2l-3-6.9zm-2.1-5.6-5.2-12.5-5.2 12.5h10.4z"/>
		<path class="st1" d="m464.1 657.3h6.4v5.6h-6.4v19.3h-7.3v-19.3h-3.9v-5.6h3.9v-1.3c0-5.6 3.4-9.5 9.9-9.5 2.1 0 4.3 0.4 5.6 1.3l-2.1 5.2c-0.9-0.4-1.7-0.9-3-0.9-2.1 0-3.4 1.3-3.4 3.9v1.3h0.3z"/>
		<path class="st1" d="m495.1 680.9c-1.7 1.3-3.9 1.7-6 1.7-6 0-9.5-3-9.5-9v-10.3h-3.9v-5.6h3.9v-6h7.3v6h6.4v5.6h-6.4v10.3c0 2.1 1.3 3.4 3 3.4 1.3 0 2.1-0.4 3-0.9l2.2 4.8z"/>
		<path class="st1" d="m528.2 671.5h-19.3c0.9 3 3.4 5.2 7.3 5.2 2.6 0 4.7-0.9 6.4-2.6l3.9 4.3c-2.1 2.6-6 4.3-10.3 4.3-8.6 0-14.6-5.6-14.6-12.9 0-7.7 6-12.9 13.8-12.9 7.3 0 13.3 5.2 13.3 13.3-0.5 0-0.5 0.8-0.5 1.3zm-19.4-4.3h12.5c-0.4-3-3-5.2-6.4-5.2-3.1 0-5.6 1.7-6.1 5.2z"/>
		<path class="st1" d="m553.5 656.4v6.9h-1.7c-3.9 0-6.9 2.1-6.9 6.9v12h-6.9v-25.4h6.9v3.4c1.8-2.5 4.8-3.8 8.6-3.8z"/>
		<path class="st1" d="m631.8 649.1-10.8 33.1h-8.2l-7.3-22.4-7.3 22.4h-8.6l-10.7-33.1h7.7l7.3 23.2 7.7-23.2h6.9l7.7 23.6 7.7-23.6h7.9z"/>
		<path class="st1" d="m636.5 669.3c0-7.7 6-12.9 14.2-12.9s13.8 5.6 13.8 12.9c0 7.7-6 12.9-13.8 12.9-8.6 0.4-14.2-5.1-14.2-12.9zm20.2 0c0-4.3-2.6-6.9-6.4-6.9s-6.4 2.6-6.4 6.9 3 6.9 6.4 6.9c3.8 0.4 6.4-2.6 6.4-6.9z"/>
		<path class="st1" d="m689.8 656.4v6.9h-1.7c-3.9 0-6.9 2.1-6.9 6.9v12h-7.3v-25.4h6.9v3.4c2.1-2.5 5.1-3.8 9-3.8z"/>
		<path class="st1" d="m709.6 672.3-3.4 3.4v6.4h-7.3v-35.1h7.3v19.8l10.7-10.3h8.6l-10.7 10.7 11.6 14.6h-9l-7.8-9.5z"/>
		<path class="st1" d="m731.9 669.3c0-7.7 6-12.9 14.2-12.9s13.8 5.6 13.8 12.9c0 7.7-6 12.9-13.8 12.9-8.6 0.4-14.2-5.1-14.2-12.9zm20.2 0c0-4.3-2.6-6.9-6.4-6.9-3.9 0-6.4 2.6-6.4 6.9s3 6.9 6.4 6.9 6.4-2.6 6.4-6.9z"/>
		<path class="st1" d="m795.1 656.9v25.4h-6.9v-3c-2.1 2.1-4.7 3.4-7.7 3.4-6.4 0-10.7-3.4-10.7-11.6v-14.2h7.3v13.3c0 4.3 1.7 6 5.2 6s6-2.1 6-6.9v-12.5l6.8 0.1z"/>
		<path class="st1" d="m823.1 680.9c-1.7 1.3-3.9 1.7-6 1.7-6 0-9.5-3-9.5-9v-10.3h-3.9v-5.6h3.9v-6h7.3v6h6.4v5.6h-6.4v10.3c0 2.1 1.3 3.4 3 3.4 1.3 0 2.1-0.4 3-0.9l2.2 4.8z"/>
		<path class="st1" d="m149 594.9-24.1-27.5h-13.3v27.5h-14.2v-69.2h49.4c11.6 0 20.6 9 20.6 20.6s-9.4 20.7-20.5 20.7h-3.4l24.1 27.5h-18.6v0.4zm4.7-48.5c0-3.9-3-6.9-6.9-6.9h-35.7v13.3h35.7c3.9 0.5 6.9-2.6 6.9-6.4z"/>
		<path class="st1" d="m247.5 594.9-9-14.2h-35.3l-9 14.2h-16.8l43-69.2 43 69.2h-15.9zm-26.7-42.5-8.6 14.2h17.6l-9-14.2z"/>
		<path class="st1" d="m308.1 561.8-20.7 33.2-43-69.2h16.8l26.7 42.6 20.6-33.1 20.6 33.1 26.2-42.6h16.8l-43 69.2-21-33.2z"/>
		<path class="st1" d="m440.9 594.9v-69.2h70.5v14.2h-56.3v13.3h42.1v14.2h-42.1v27.5h-14.2z"/>
		<path class="st1" d="m527.3 594.9v-69.2h14.2v69.2h-14.2z"/>
		<path class="st1" d="m586.2 594.9v-55h-27.9v-14.2h70.1v14.2h-27.9v55h-14.3z"/>
		<path class="st1" d="m658.9 555v40h-14.2v-69.2l49.9 39.5v-39.5h14.2v69.2l-49.9-40z"/>
		<path class="st1" d="m725.5 594.9v-69.2h70.5v14.2h-56.3v13.3h42.1v14.2h-42.1v13.3h56.3v14.2h-70.5z"/>
		<path class="st1" d="m812.3 594.9v-14.2h49.4c3.9 0 6.9-3 6.9-6.9s-3-6.9-6.9-6.9h-28.7c-11.6 0-20.6-9.5-20.6-20.6s9.5-20.6 20.6-20.6h49.4v14.2h-49.4c-3.9 0-6.9 3-6.9 6.9s3 6.9 6.9 6.9h28.8c11.6 0 20.6 9.5 20.6 20.6s-9.5 20.6-20.6 20.6h-49.5z"/>
		<path class="st1" d="m897 594.9v-14.2h49.4c3.9 0 6.9-3 6.9-6.9s-3-6.9-6.9-6.9h-28.8c-11.6 0-20.6-9.5-20.6-20.6s9.5-20.6 20.6-20.6h49.4v14.2h-49.4c-3.9 0-6.9 3-6.9 6.9s3 6.9 6.9 6.9h28.8c11.6 0 20.6 9.5 20.6 20.6s-9.5 20.6-20.6 20.6h-49.4z"/>
<g class="st3">
	<polygon class="st4" points="634.9 650.9 592.6 650.9 592.4 650.9 498.2 814.2 404 651.1 404 650.9 403.9 650.9 361.4 650.9 241.6 650.9 380.1 683.4 498.2 887.8 616.1 683.5 755.1 650.9"/>
	<path class="st5" d="m520.3 198c1.1 1.1 1.8 2.3 2 3.8 0.1 0.9 0.3 1.8 0.4 2.6 1.8 8.5 5.8 15.5 13.3 20.2 0.9 0.5 1.7 1.2 2.4 1.9 1.8 2 4.1 2.5 6.5 2 2.5-0.5 5-1 7.2-2 4.1-1.8 8-3.9 12-5.8 0.5-0.3 1.2-0.3 2.7-0.7-8.4 7.3-17.4 11.3-27 13.8-2.9 5.9-5.1 11.9-6.2 18.2-0.3 1.7-0.3 3.6-0.2 5.3 0.4 6.3 4 9.9 10.3 10.7 7.2 0.9 14.2 0.1 21-2.2 8.2-2.8 15.7-7 22.5-12.3 4.7-3.6 9.2-7.5 13.6-11.4 1.5-1.3 2.9-1.9 4.8-1.8 1.8 0.1 3.6 0.2 5.3 0.3 0.5 0 1-0.1 1.5-0.1 0-0.4 0.1-0.6 0-0.7-0.2-0.2-0.4-0.5-0.6-0.6-2.5-1.8-5.5-2.5-8.4-1.9-2.6 0.5-4.6-0.3-6.6-1.8-2.8-2.1-4.8-4.8-5.9-8.2-1.3-4.2-1.1-8.5-0.3-12.7 0.2-0.9 0-2.1 1.3-2.8 3.1 1.6 4.6 4.8 7 8-0.2-1.2-0.1-1.8-0.3-2.3l-3.6-8.1c-1.1-2.4-1-3.7 0.7-6.6 4 2.2 5.6 6.2 7.5 11.1 0.6-9-2.5-15.9-6.4-22.6 3.3-3.7 4.9-7.9 5.2-12.7 1.1-0.1 2-0.2 2.8-0.1 0.9 0.1 1.8 0.3 2.6 0.7 0.9 0.4 1.8 1 2.7 1.4 0.7 0.3 0.9 1.6 2.3 0.7-1.1-1.5-2-3-3.3-4.2-1.2-1.2-2.7-2.3-4.2-3.2s-3.1-1.5-4.4-2.1c-0.1-6.1-0.3-11.8-0.4-17.6 0-0.1 0.1-0.3 0.1-0.4 0.1-0.1 0.3-0.1 0.6-0.2 4.1 0.7 6.1 4.2 8.6 8.1-0.3-3.2-0.8-5.5-2.1-7.5-1.2-1.8-2.5-3.7-4.1-5.2-1.7-1.6-3.8-2.7-5.8-4 0.3-1.1 0.6-2.1 0.9-3.1 3.2-11.4-2.5-22-9.8-27.1-3.2-2.2-6.8-3.6-10.7-4.1-3.7-0.5-5.8 0.7-7.5 4.1-0.4 0.7-0.8 1.4-1.2 2.2-1.2-0.5-2.2-0.9-3.1-1.2-18.2-7.6-39.6 2.7-45.2 21.8-1.6 5.6-2.9 11.2-3.3 17-0.6 7.4-0.9 14.8 0.9 22.1 0.9 3.6 0.5 7-1.3 10.3-1.4 2.4-1.2 4.9 0.2 7.2 0.8 1.4 1.8 2.7 3 3.8z"/>
	<path class="st6" d="m487.5 426.3c3.2-0.1 6-0.9 8.5-2.6 2.2-1.5 3.5-3.4 3.6-6.2 0-2.3 0.5-4.8 1.2-7 1.7-5.4 1.5-10.8 0.8-16.3-0.1-0.6 0.1-1.5-1.1-1.8-4.6 7.7-8.4 15.9-14.9 22.7 0.7 3.9 0.7 7.7 1.9 11.2z"/>
	<g class="st7">
			<path class="st0" d="m449 119.5c-0.1 1.2-0.2 2.4-0.4 3.6-0.3 1.5-0.6 3-1 4.3 4.2 2 6.5 6 6.3 10.9-0.3 6.6-1.4 12.5-3.3 17.9h60.1c0.1-0.8 0.1-1.6 0.2-2.3 0.5-5.6 1.6-11.6 3.6-18.3 1.8-6.2 5-11.6 9.2-16.1h-74.7z"/>
			<path class="st0" d="m349.6 156.3c-1.3-3.1-2.2-6.4-2.7-10.2-0.3-2.3-0.4-4.9-0.4-7.7 0.1-5 2.7-8.7 7-10.2 0-2.9 0-5.8-0.1-8.7h-35c-3.8 2.8-8.2 4.3-13.1 4.3h-0.8-3.1c-1.2 0-2.4 0-3.6 0.1h-0.4c-3.8 0-7.1-1.6-9.4-4.3h-16.2c-5.1 4.7-9.3 9-12.8 13.4-0.6 0.8-1.2 1.6-1.8 2.4l-0.1 0.2c-0.8 1.1-1.2 2-1.3 3.2-0.5 4.9-1.3 11.3-3.5 17.7h97.3v-0.2z"/>
			<path class="st0" d="m167.3 156.3c3.1-5.3 7.3-10.9 13.9-15l27.2-21.8h-153.8l180.1 312-104.2 30.7h164.5l-176.6-305.9h48.9z"/>
			<path class="st0" d="m941.7 119.5h-339.9c3.6 6.2 5.5 14 3.6 22.4 0.8 0.6 1.7 1.2 2.5 2 2.3 2.1 4 4.6 5.3 6.5 1.2 1.9 2 3.9 2.4 5.9h262.4l-176.7 305.9h162.8l-102.9-30.3 180.5-312.4z"/>
	</g>
	<path class="st5" d="m177.8 213.9c2 1 4.1 1.7 6.3 2.2 3.5 0.7 7.1 0.5 10.6 0.6 1.5 0 3.1 0.1 4.6 0.1-0.4 0.3-0.9 0.6-1.4 0.7-3.2 0.8-6.4 1.2-9.7 1h-4.2c0.7 2 1.9 3.1 2.8 4.4 9.3 11.6 20.4 21 33.4 28.2 13.8 7.7 28.6 12 44.3 13.5 2.6 0.2 5.3 0.3 7.9-0.4 2.1-0.5 4.4-0.5 6.6-0.2 3.8 0.5 7.4 1.7 10.3 5-3.3-0.9-6.3-1.9-9.3-2.3-3.1-0.4-6.2-0.2-9.1 1.5-0.1 0.9-0.3 1.8-0.3 2.7-0.3 6 0.6 11.8 2.3 17.6 3.1 10.9 8.5 20.8 14.7 30.3 0.6 0.9 1.3 1.6 2 2.3 7.1 6.4 13 13.9 18 21.9 3.7 5.9 6.9 12.1 10.5 18.1 2.5 4.3 4.1 8.8 5.1 13.7 2 9.5 2.3 19.1 2 28.8-0.2 7.7-0.7 15.4-1.3 23.1-0.2 3 0.4 5.6 2 8 0.9 1.4 1.8 2.7 2.9 4 2.4 2.8 5 5.5 7.5 8.2 0.5 0.6 1.4 1 1.3 2.5-4.1-2.7-7.6-5.9-11.7-8.8-0.2 1.3-0.4 2.1-0.5 3-0.5 5.2-1 10.3-1.3 15.5-0.1 1.3-0.4 2.4-1 3.5h13.1c-0.2-0.4-0.3-0.7-0.5-1.1-0.3-1-0.6-2-0.8-2.9 1.1-0.7 1.5 0.2 1.9 0.7 1.1 1.4 2.3 2.4 3.7 3.3h111.5c0.9-0.8 1.8-1.6 2.9-2.6-0.3 1.4-0.3 2-0.5 2.4 0 0.1-0.1 0.1-0.1 0.2h9.5c-0.7-1.3-1.3-2.7-1.8-4.2-2.8-8.8-6.3-17.3-10.5-25.4-2.6-5-4.7-10.2-6.5-15.6-5.6-16.1-9.8-32.6-13.3-49.3-0.9-4.5-1.7-8.9-1-13.6 2-15 6.4-29.2 13.6-42.5 1.1-2 2.5-3.5 4.4-4.8 9.8-6.6 14.7-16 15.1-27.7 0.1-3.3 0.7-6.5 2.2-9.4 1.6-3.2 3.2-6.3 5.2-9.3 2.9-4.5 6.7-8.3 10.6-11.9 5.4-4.9 11.3-9.1 17.5-13 0.6-0.4 1.7-0.5 1.5-1.8-2.6-0.5-5.2-0.9-7.8-1.5-9-2-17.5-5.6-25.8-9.6-9.2-4.4-18.1-9.5-26.9-14.8-1.2-0.7-2.5-1.4-4.2-2.4-0.6 2.9 0.1 5.5-0.4 8.3-1.6-2.2-1.4-4.4-1.7-6.4-0.9-6.8-1.1-13.6 0.6-20.3 0.8-3 1.2-6.1 1.6-9.2 0.5-4.4 0.7-8.8 1.1-13.6 2.4-2 4.6-4.6 5.9-7.8 2.3-5.9 3.4-12 3.7-18.2 0.1-2.8-1.2-4.4-4-5.1-1.1-0.3-2.3-0.3-3.4-0.5-0.3-2.1 0.4-3.7 0.9-5.4s1-3.4 1.3-5.1c1-6.2 1-12.4-0.1-18.6-0.3-1.6-0.8-3.2-1.5-4.6-2.4-5-5.8-9.3-10-12.9-1.9-1.7-3.6-3.4-5.1-5.5-2.2-3.2-5-5.8-8.2-8-0.4-0.3-1-0.5-1.6-0.8-0.2 0.9-0.3 1.6-0.5 2.5-2.3-0.9-4.4-1.8-6.6-2.5-2.1-0.7-4.2-1.3-6.4-1.7-2.3-0.4-4.5-1.2-6.9-0.6 0.1 0.8 0.2 1.4 0.4 2.2-9.3-0.2-17.5 2-24.9 7.2 0.5 0.7 0.7 1.1 1.1 1.6-4.4 2.4-7.9 5.5-10.5 9.6-0.3 0.5-1 1.2-0.1 1.9 1.6-0.1 2.8-1.7 4.7-1.1-0.9 1.2-1.8 2.1-2.5 3.2s-1.2 2.4-1.5 3.7c-1.2 6-1.7 12-1.5 18.1 0.2 5.5 0.1 11 0.1 16.4 0 0.8-0.3 1.6-0.5 2.5-0.7-0.1-1.1-0.2-1.6-0.2-0.1 0-0.3-0.1-0.4-0.1-2.9 0.1-4.4 1.5-4.5 4.4 0 2.2 0 4.5 0.3 6.7 1 7.3 3.7 13.7 9.8 18.3 0.3 0.3 0.6 0.7 0.8 1 0 3.3-0.2 6.6 0 9.8 0.6 9.9 4.6 17.7 14 22 1.2 0.6 2.4 1.3 3.5 2-4.4-0.3-8.1-2.5-12.2-4.1-0.6 0.6-1.2 1.1-1.7 1.6-2.8 3.1-6.1 5.6-9.9 7.4-3.3 1.6-6.8 2.9-10.2 4.4-0.9 0.4-1.8 0.8-2.8 1.2-0.4 3.2 0.8 5.7 2.4 8.1 2 3 4.7 5.3 7.5 7.5 5.1 3.9 10.6 7.1 16.2 10.1 1.4 0.7 2.7 1.8 4 2.6l0.1 0.1c-4.5-1.5-8.8-3.5-12.9-5.9-6.3-3.7-12-8.2-16.6-13.9-1.2-1.5-2.3-3-2.7-5-1.5-7-5.9-11.8-11.9-15.3-3.6-2.1-7.5-3.6-11.5-4.6-12.3-3.1-24.9-3.6-37.5-3.1-0.5 0-1.1 0.3-1.8 0.5 0.6 3.5 1.9 6.6 1.6 11-1.1-2.1-1.7-3.4-2.3-4.7-5.5-11.2-18.4-20.8-35.4-18.6-3.5 0.5-7 1.1-10.5 1.9-6.5 1.4-12.3 4.2-16.5 9.7-0.1 0.1-0.4 0.1-0.8 0.2 0.1-0.5 0.1-1 0.3-1.3 2-4.2 5-7.3 9.3-9.1 7-3 12.1-8 15.5-14.7 1.6-3.1 2.9-6.5 4.1-9.8 1.9-5.3 2.7-10.9 3.3-16.5 0.2-2.5 1.1-4.6 2.5-6.5 0.7-1 1.4-1.9 2.1-2.9 6.2-7.6 13.4-14.3 20.9-20.6 3.8-3.2 8.2-3.8 13-2.5 0.2 0.7 0.4 1.2 0.5 1.8 0.2 1.7 0.9 3.2 2.4 4.1 1.1 0.7 1.5 1.8 2 2.8 1.1 2 2.8 2.9 5.1 2.9 2.4-0.1 4.7-0.1 7.1 0 5.7 0.2 10-2.2 13.3-6.7 2-2.8 3.4-5.9 4.4-9.2 2.8-8.9-2.1-16-11.3-16.3-11.7-0.4-23.4-0.7-35.1-1.1-1.9-0.1-3.9-0.1-5.8 0.1-4.8 0.4-9.2 1.9-13 5.1-7.6 6.2-15.2 12.3-22.9 18.4-16.4 13.1-32.9 26.3-49.3 39.4-7.1 4.4-11.4 11.1-14.8 18.5-2 4.4-3.7 9-5.6 13.6-1.1 2.7-2.3 5.5-3.3 8.2-0.7 1.9-1.4 3.9-1.9 5.9-0.3 1.4-0.2 2.9 0.7 4.3 5.1 6.2 10.7 12 18.2 15.9zm233.5 154.1c-2.7 1.4-5.5 2.8-8.5 4.4-1 2.7-1.1 5.6-1 8.5 0.1 2.5 0.5 5 0.5 7.5 0 2.9 1.6 4.4 4.1 5.2 1.7 0.6 3.4 0.8 5.4 1.2-1.4 1.7-3.3 1.7-5 2.2-1.4 0.4-2.9 0.4-4.8 0.5-1.1 4.8-1.2 9.4-1 14 0.1 1.5 0.8 2.5 2.1 3.1 1.6 0.6 3.3 1.2 5.4 1.9-1.1 0.4-1.8 0.8-2.5 0.9-1.8 0.1-3.5 0-5.5 0-0.7 1.5-1.3 2.8-2 4.3-1.8-1-1.1-3.3-2.4-4.4-1.6-1-3.9 0-5.3-1.9 2-0.9 4-1.7 6.2-2.6 0.5-4.5 0.1-9 0-13.3-2.3-1.9-4.6-3.6-5-7h5.8c0.3-1.2 0.8-2.2 0.9-3.4 0.4-6.7-1.3-12.9-4-18.7-7-2-7.5-2.3-9.7-6.1 3.6-0.3 7.2-0.4 10-3.5v-12.9c-1.8-1.1-3.7-2.2-5.5-3.4s-3.8-2.2-5.7-4.2c5.8-0.3 7.9-3.8 9-8.5 1.7-6.9 2.7-13.9 3.5-21 0.1-0.9 0.2-1.7 0.3-2.6 1 0 1.1 0.6 1.2 1.1 0.4 4.1 0.7 8.3 1.1 12.4 0.2 1.9 0.5 3.8 0.6 5.7 0.4 4.3 2.6 7.5 5.9 10 2.6 2 5.7 3.2 8.8 4.2 1.3 0.4 2.5 0.7 3.9 1.1-2.6 2.4-3.7 2.9-17.8 7.8-1.1 4.8-1.6 9.7-0.3 14.9 1.9 0.9 4 1 6.1 1.1h5.8c0.4 0.9-0.1 1.2-0.6 1.5zm30 45.3c1.2 3.8 2.6 7.6 3.8 11.4 0.4 1.2 0.8 2.6 0.8 3.9 0 4.5-0.8 8.9-2.7 12.9-2.3 5-6.1 8.7-11.1 11.1-0.2 0.1-0.5 0-1 0 0.3-1.4 1.3-2.3 2-3.4 3-4.6 5.7-9.4 7.1-14.8 0.2-0.9 0.4-1.7 0.6-2.6 0.6-2.7 0.4-5.2-1.4-7.5-1.4-1.9-2.4-4.1-3.6-6.2-1.7-0.7-3.5-0.1-5.2 0.1-3.9 0.5-7.7 0.5-11.5-0.4-1.4-0.3-2.9-0.6-4.5-2.7 3 0 5.4 0.1 7.7 0 2.8-0.1 5.6-0.9 8-2.3 2.6-1.5 4.1-3.6 4.1-6.9 0-3.6-0.4-6.3-2.1-9.7-1 0.2-2.1 0.5-3.3 0.7-3.3 0.7-6.5 0.5-9.3-1.6-0.4-0.3-0.7-0.8-1.6-1.8 5.3 1.2 9.7 0.3 13.7-2.9 0.3-3.7-1.3-7.1-1.9-10.7-0.7-3.6-1.7-7.2-2.5-10.9-3-0.8-6.3-0.4-9.1-2.9 2.7-0.4 5.2 0.1 7.4-1.8 0.4-2.7 0-5.7 0-8.6 0.1-3 0-5.9 0-9.1-0.8-0.5-1.8-1.1-3-1.8h6.7c-0.2 2-0.3 3.7-0.6 5.4-0.9 5.5-0.6 11 0.6 16.4 3.6 15.8 7.2 31.4 11.9 46.7zm-27.5-181.7c3.5 1.8 7.1 3.1 11 2.8 1.5-0.1 3-0.3 4.3-0.9 2.7-1.2 5.6-1.8 8.5-2.3 7.5-1.3 15-1.8 22.6-1.4 2.4 0.1 4.6 0.6 7 1.9-4.1 0.3-8.2 0.4-12.3 1-3.9 0.6-7.9 1.5-11.7 2.4-4 1-7.9 2.2-11.9 4.4 1.3 1.5 2.9 1.9 4.2 2.8 1.3 1 2.7 1.9 3.9 2.9s2.3 2.2 4 3.9c-1.3-0.1-1.8 0-2.2-0.1-7.9-3.4-16.2-4.7-24.7-4.5-0.4 0-0.8-0.2-1.7-0.4 2.4-1.6 4.4-2.9 6.4-4.2-0.6-1.5-1.9-1.1-2.8-1.6s-1.9-0.8-2.8-1.4c-1-0.6-2-1.3-2.8-2.1-0.8-0.7-1.4-1.5-2-2.4-0.5-0.8-0.8-1.8-1.6-3.5 2.1 1.4 3.3 2.1 4.6 2.7zm-16.3 20c1.2-0.7 2.5-1.5 3.9-2.3s2.9-1.1 4.9-1.4c-7.5 7.5-8.3 9.7-5.9 16.6 4.1-2.1 8.3-4 13.1-3.1 1.5 0.3 3.3 0.2 4.5 1.9-1.7 0.5-3.3 0.9-4.8 1.4-3.3 1-6.4 2.3-9.2 4.3-2.9 2-5 4.6-5.6 8.2-0.3 1.6-0.5 3.2 0.6 4.6 9-0.2 13.6 3 14 10.2-1.3-1-2.4-1.8-3.5-2.7-2.5-1.8-5.1-2.9-8.3-2.6-1.6 0.2-2.9 0.6-3.8 1.9-0.6 0.8-1.3 1.6-2 2.4-4.1 4.2-9 5.9-15.3 5.3 1.7-0.9 3.1-1.1 4.4-1.6 4-1.5 7.5-3.6 9.9-7.2 1.6-2.3 2.1-4.7 1.2-7.5-2-6.6-5.7-12-11.3-16.1-1-0.8-2.1-1.5-3.1-2.2 0.1-1.1 0.8-1 1.3-1 3.7 0 7 1.2 9.8 3.6 0.7 0.6 1.3 1.2 2.3 2 0.4-0.9 0.8-1.5 0.8-2.1 0.5-4.3 0.2-8.6-1.2-12.7-0.3-0.9-0.4-1.9-0.5-2.9 1.7 0.3 2 2.4 3.8 3zm-4-3.1c-0.1-0.3-0.2-0.5-0.4-0.8 0.2 0.3 0.3 0.6 0.4 0.8zm-12-44.1c1 2.7 1.8 5.5 3 8.1 1.2 2.5 2.7 4.9 4.3 7.2 1.7 2.4 3.6 4.6 5.8 7.4-9-1.9-16.4-11.4-17.7-21.9 1.9-0.9 1.9-1 4.6-0.8zm-83.7 39.5c0.8 4.2 1.4 8.3 2.5 12.3 1.3 4.9 3.6 9.4 7.1 13.2 3 3.2 4.9 7 6.3 11.1 3.1 9.4 6.5 18.8 10.7 27.8 2.8 6.1 5.8 12 9.6 17.6 2.9 4.3 6.1 8.4 10.2 11.7 2.8 2.3 5.9 4 9.4 4.7 1.9 0.4 3.8 0.5 5.7 0.1 4.5-1.1 9.1-1.6 13.7-1.2 3.9 0.3 7.6 1.2 10.6 3.7 0 1-0.6 1-1.2 1-3.1-0.1-6.2-0.3-9.3-0.2-2.8 0.1-5.6 0.4-8.4 1-1.9 0.4-3.7 1.1-5.4 2-3.4 1.8-5.1 4.9-5.1 8.7 0 1.6 0 3.3 1.1 5 6.4-0.9 12.7-0.5 18.7 2.7-1.1 0-2.2 0.1-3.3 0.1-4.2 0.1-8.2 1.2-12 2.9-3.7 1.7-5.7 4.7-6.6 8.4-1.2 5.3 0.1 10 3.9 14 2.1 2.2 4.8 2.9 7.6 3.1 5.8 0.4 11.5-0.2 17.2-1.4 1.4-0.3 2.9-0.5 4.4-0.7 0 1.2-0.9 1.2-1.5 1.5-8.4 3.9-17.2 5.5-26.4 4.5-3-0.3-4.8 1.1-6.4 3.1-1.6 2.1-1.6 4.5-0.4 6.7 2 3.9 5.1 6.5 9.4 7.5 4.7 1.2 9.4 1.2 14.1 0.5 4.1-0.6 8.2-1.3 12.8-2-1 0.8-1.5 1.4-2.2 1.7-8.2 4.4-16.8 5.5-25.9 3.8-1.3-0.2-2.6-0.5-4.2-0.8-1 6.3 1 12 3.2 17.7-1.1 0.5-1.5-0.3-1.9-0.7-5.8-6.2-9-13.5-9.6-21.9-0.1-1-0.1-2.1-0.2-3.1 0-0.1-0.1-0.3-0.4-0.8-3.8-2.2-7.2-5.3-9.3-10.5 3.4 1.8 6 4.1 9.5 1.9 0.5-2.8-0.4-5.5-0.9-8.3-0.2-1-1.3-1.9-2-2.8-3.6-4.4-6.7-9-9-14.2 1-0.7 1.3 0.2 1.8 0.6 1.6 1.4 3.1 2.8 4.6 4.2 0.5 0.5 1.2 0.7 2.2 1.3-0.9-5.9-2-11.2-1.2-16.9-4.1-3.5-8-7-10.4-12 1-0.9 1.4 0 1.8 0.4 3.5 3 7.4 5.4 11.7 7.2 0.7 0.3 1.4 0.4 2.4 0.8 0.5-3.3 0.9-6.3 1.3-9.1-0.5-0.6-0.7-1-1-1.3-10.8-10.1-18.7-22.2-25.2-35.3-5.6-11.3-10-23.1-13.7-35.2-0.8-2.5-1.8-4.6-3.5-6.6-5.6-6.8-8-14.8-8.2-23.5 0.3-2 0.5-4 1.3-6z"/>
	<path class="st5" d="m469 277.3c-0.3 0.8-0.4 1.7-0.6 2.6-0.8 6.4-3.1 12.3-6.4 17.9-2.7 4.6-6 8.8-9.8 12.6-2 2-3.7 4.3-5 6.8-0.9 1.8-1.9 3.7-2.7 5.6-5 11.3-7.7 23.3-9.8 35.5-0.2 1.3-0.1 2.7 0 4 0.9 7.5 2.1 15 3.8 22.3 3.9 16.4 10 31.9 17.8 46.9 0.9 1.8 1.9 3.7 2.5 5.7 2.4 7.5 5.6 14.7 9.3 21.6l1.8 3.6h44.8c-3.3-4.1-6.2-8.5-8.5-13.3-0.1-0.2-0.1-0.5-0.1-1.1 1.6 0.5 2.3 1.8 3.4 2.7 1.2 0.9 2.3 1.8 3.3 2.7 1.3-0.4 1-1.2 0.9-1.9-0.3-3.5-0.6-7 0.2-10.6 0.2 0.1 0.5 0.2 0.5 0.3l0.9 4.8c1.1 5.8 3.2 11.2 5.8 16.4h40.6c-0.3-1.5 0.3-3 0.9-4.4 1.8-4 4.4-7.4 7.8-10.1 1.3-1 2.6-2 3.8-3.1 6.2-5.5 13.6-8.4 21.8-9.1 3.5-0.3 7.1-0.1 10.7-0.1h4.3c2.1-8.4-0.3-24-4.8-31.5-1 0.8-2 1.5-3.3 2.5 0-0.8-0.1-1.3 0-1.6 2.2-3.9 3.2-8.2 4.1-12.6 2.1-10 5.5-19.7 9.6-29.1 6.8-15.5 15.8-29.5 27.4-41.8 0.9-1 1.8-2 2.7-3-0.6-1.9-2.1-2.9-3.3-4.2-1.3-1.4-2.7-2.8-4-4.2-1.2-1.2-2.5-2.3-3.1-4.2 0.6 0.3 1.2 0.6 1.8 1 4.4 3.5 8.9 6.9 13.1 10.6 3.8 3.3 7.3 7 10.8 10.5 2.7 2.7 5.1 5.6 7 9.1 1.6 3 3.9 5.6 6.2 8.1 6.8 7.1 14.7 12.8 23 18.1 0.2 0.1 0.6 0.1 1.1 0.3 0.9-1 1.8-2.1 2.9-3.3 0.8 0.9 0.1 1.6-0.2 2.2-3.4 7.6-7.7 14.7-12.5 21.5-8 11.4-17.3 21.9-27.2 31.7-1 1-2.3 1.9-3.4 2.8-7.2 5.7-14.5 11.3-21.7 17-1.2 1-2.4 1.5-4 1.3-4.5-0.5-8.9 0.1-13.2 1.2-1.9 0.5-3.7 0.6-5.7 0.4-7-0.7-13.9-0.7-20.8 0.7-2.8 0.6-5.5 1.3-8 2.7-3.7 2.1-7.5 4.2-11.1 6.5-1.7 1.1-3.3 2.6-4.7 4-1.5 1.5-2.6 3.3-2 5.6 0.4 1.6-0.4 2.9-1.3 4.1-0.1 0.1-0.2 0.2-0.2 0.3h81.8c0.7-0.9 1.4-1.9 2-3 2.5-4.7 6.1-8.4 10.3-11.4 5-3.6 10.3-6.4 16-8.7 5.5-2.2 10.8-4.9 15.7-8.2 5.1-3.4 10-7 14.9-10.4 2.3-1.6 4.3-3.6 6.1-5.8 8.6-10.6 17.3-21.1 26-31.6 1.5-1.8 3-3.6 5-5 2.9-2 4.2-5 3.8-8.5-0.2-2-0.6-4.1-1.4-6-3.9-9.3-8.2-18.4-13.7-26.9-6.9-10.8-15.2-20.5-25.1-28.7-1.6-1.4-3.3-2.3-5.4-2.8-5.4-1.2-9.7-4.2-13.8-7.8-1.2-1-1.8-2.3-1.9-3.8-0.7-6.1-3.4-11.3-7.1-16-2.9-3.6-6.3-6.7-10.1-9.4-5.3-3.9-11-6.9-17-9.6-5.5-2.6-11-5.2-16.4-7.8-3.9-1.9-7.7-3.8-11.6-5.6-0.9-0.4-1.9-0.8-2.8-1.1-0.5 0.4-0.9 0.6-1.1 0.9-6.5 9.1-11.8 18.8-14.9 29.6-3.5 12.2-3.3 24.3 2.3 36 0.3 0.6 0.4 1.3 0.7 2.2-1.7 0.2-3.1 0.4-4.6 0.6-3.1 0.4-6 1.6-8.5 3.5-0.4 0.3-1.5 0.5-0.9 1.6 1.2-0.4 2.3-0.8 3.4-1.2 2.8-0.9 5.6-0.6 8.3 0.1 2.2 0.6 3.4 1.8 3.9 4.2 1.4 7 4.7 13 9.5 18.3 0.6 0.6 1.1 1.3 1.9 2.1-1 1.2-1.8 2.4-2.8 3.5s-1.6 2.5-3.4 3c-5.8-2.6-11.9-4.9-18.3-6.2-6.6-1.3-13.2-2-20.3-1.7 1.8 1 3.3 1.2 4.9 1.4 10.1 1.5 19.5 5 28.3 10.2 1 0.6 1.9 1.3 2.9 2 0.1 3.5 0.2 6.8-0.4 10.1-0.6 0.1-0.9 0.2-1.1 0.2-1-0.2-2-0.5-3-0.8-24.3-7.2-49.1-11-74.2-13.4-8.8-0.9-17.7-1.4-26.6-1.9-1.9-0.1-3.4-0.8-4.6-2.2-3-3.3-5.8-6.7-8.2-10.5-7-11.5-8.2-23.6-3.2-36.2 0.7-1.6 1.3-3.3 2-4.8-0.7-1.5-1.3-2.9-1.9-4.2s-1.1-2.7-0.7-4.2c0.9-0.1 1.1 0.7 1.5 1.2 1.1 1.2 2.1 2.4 3.8 3 0.5-0.6 0.9-1 1.3-1.5 11.9-17.7 23.8-35.4 35.7-53.1 0.3-0.4 0.3-1 0.4-1.6-0.8 0-1.2 0-1.6 0.1-6.9 1.1-13.7 2.3-20.6 3.5-1.9 0.3-3.8 0.6-5.6 1.2-19 6.2-31 19.3-36.8 38.1zm117.7 150.2c-4.5 4.5-9.2 8.8-14.4 12.4-1.5 1-3 2-4.6 2.6-5.8 2.5-10.3 6.4-13.6 11.6-0.5 0.7-1 1.4-2 2.9 0.2-1.6 0.1-2.3 0.3-3 1.2-4 3.1-7.7 6.1-10.6 1.7-1.6 2.7-3.4 3.6-5.5 2.7-6.4 5-13 5.4-20 0.2-2.6 0-5.3 0-7.9 2.1 3 3.3 8.2 3.1 13.4-0.2 4.7-1.8 9.2-3.5 13.4 1 0.8 1.6 0.2 2.2-0.1 5.5-2.7 10.6-6 15.5-9.5 0.7-0.5 1.5-0.9 2.3-1.4 0.1 0 0.2 0.1 0.6 0.3-0.4 0.5-0.7 1-1 1.4zm-20.8-51.7c2.3-1.6 4.2-3.7 5.8-6.1 1.5-2.2 2.6-4.6 3.4-7.4-1.4-1.8-4-1.5-5.8-2.9 3.6-0.6 7.3-0.6 11.1 0.2-1.4 3.9-3.3 7.6-3.4 11.7 1.1 0.8 1.8 0 2.5-0.4 2.4-1.4 4.8-2.9 7.3-4.3 0.4-0.3 1-0.3 2.2-0.7-3.3 4.9-7.5 7.7-11.6 10.4-1.3 4.7-1.4 7.3-0.8 12.1 1-0.3 2-0.4 2.8-0.9 4.5-2.5 9-5.1 13.5-7.7 1.2-0.7 2.5-1.4 3.8-2.1-9 11.7-23.3 20.7-32.2 21 1.7-2.1 3.4-4.1 5-6.2 0.4-0.6 0.8-1.3 1.1-1.9 0.3-0.7 0.6-1.4 0.8-2.1s0.4-1.4 0.5-2.2c0.2-0.9 0.4-1.7 0.5-2.6 0.1-0.7 0.1-1.5 0.1-2.2 0-1-0.1-2.1-0.1-3.1 0-0.4-0.1-0.9-0.3-1.3-0.1-0.3-0.3-0.5-0.7-1-3.7 1.8-7.4 4-12.5 4.2 2.7-1.7 4.9-3 7-4.5zm-39 21.1c-1.1-0.6-2.3-1.1-3.4-1.7-3.9-2.1-6.8-5.2-8.5-9.3-0.2-0.5-0.1-1.1-0.2-2.1 3.4 2.9 6.5 5.4 11 5.3-0.2-4.6-1.1-8.9-1.7-13.5-4.2-2.2-8.3-4.7-10.9-8.9 3.8 1.2 7.2 3.4 11.6 3.1 0.7-5.3 0-10.5 0.4-15.5 3.4-0.6 9.2-0.2 14 1-0.1 0.2-0.3 0.6-0.5 0.6-2.6 0.2-5.3 0.4-7.8 0.5-1.8 1.4-2.4 3.2-2.3 5.2 0 1.7 0.4 3.2 1.6 4.5 1.1 1.3 2.4 2.2 4.3 1.9 1.5-0.2 2.9-0.4 4.4-0.6 4.3-0.6 8.5-0.2 13.5 0.9-3.1 0.5-5.4 0.8-7.7 1.2-3.1 0.5-5.9 1.8-8.7 3.1-3.1 1.5-4.6 4.1-5.1 7.3-0.4 2.3-0.4 4.7 1.1 7.1 3.6-2.6 7.2-4.7 11.8-4.2 2.1 0.2 4 0.5 5.7 1.9-0.1 1.1-0.9 0.7-1.3 0.8s-0.9 0-1.3 0.1c-5.5 0.4-9.9 2.9-13.1 7.3-2 2.8-1.9 5.4 0.2 8.1 2.9 3.7 6.6 5.8 11.4 6.1 2.8 0.1 5.6 0 8.4-0.8 1.4-0.4 2.8-0.7 5-1.2-1.1 1.1-1.5 1.6-2.1 2-5.5 3.5-11.4 4.5-17.4 1.8-7.2-3.2-14.4-2.4-21.7-1-3.6 5.1-4.2 10.8-4.6 17.3-2-3.4-2-6.5-2-9.5 0-4.5 0.9-8.8 3.3-12.9 4.1-0.9 8.5 0.6 12.9-1 0.1-0.8 0.2-1.7 0.2-2.5-0.3-0.7-0.4-1.5-0.5-2.4zm-42-65.5c4.5 7.9 10.5 14.6 17.1 20.9 0.3 0.3 0.6 0.7 1 1.2-0.2 1.8-0.6 3.7-0.7 5.5-0.5 5.5 0.1 11 1.2 16.3 0.3 1.4 0.9 2.8 1.7 4 4.8 7.2 5.4 14.9 2.6 22.9-1.7 4.9-3.1 9.9-3.8 15-0.9 5.9-0.8 11.8 0.3 17.7 0.1 0.6 0.2 1.2 0.3 1.7 0 0.1-0.1 0.3-0.2 0.7-4 2-8.4 3-13 2.9-2.6-0.1-4.4-1.2-5.8-3.4-4.9-7.9-8.5-16.3-10.7-25.2-2.6-10.4-3.6-21-3.4-31.7 0.1-4.6 0.1-9.2-0.8-13.7-0.8-4-2.2-7.6-4.3-11.3 0.8-0.5 1.5-1 2.2-1.5 2.6-1.6 4.7-3.6 6.3-6.1 2.4-3.7 4.6-7.6 6.8-11.5 0.9-1.5 1.5-3.2 2.3-4.9 0.2 0.2 0.7 0.2 0.9 0.5z"/>
	<path class="st6" d="m473.8 357.2c0.6 1.7 1.2 3.5 1.9 5.3 0.8 1.8 0.4 4 1.4 5.9 3-2.7 11.7-13.7 13.8-17.2-1-1.4-2-2.8-3-4.3s-2-3.1-3.1-4.8c-4.7 10.2-4.7 10.2-11 15.1z"/>
	<g class="st7">
		<path class="st1" d="m290.5 627.7-5.3-7.6h-5.8v7.6h-6.3v-27.3h11.8c7.3 0 11.9 3.8 11.9 9.9 0 4.1-2.1 7.1-5.6 8.6l6.1 8.8h-6.8zm-5.9-22.1h-5.1v9.5h5.1c3.9 0 5.8-1.8 5.8-4.8s-1.9-4.7-5.8-4.7z"/>
		<path class="st1" d="m326.4 606.7v21h-5.8v-2.5c-1.6 1.8-3.9 2.8-6.5 2.8-5.3 0-9-3-9-9.4v-11.9h6.1v11c0 3.5 1.6 5.1 4.2 5.1 2.8 0 4.8-1.8 4.8-5.7v-10.4h6.2z"/>
		<path class="st1" d="m335.9 598.8h6.1v28.9h-6.1v-28.9z"/>
		<path class="st1" d="m372 618.9h-15.9c0.6 2.6 2.8 4.2 6 4.2 2.2 0 3.8-0.7 5.3-2l3.2 3.5c-1.9 2.2-4.9 3.4-8.7 3.4-7.3 0-12-4.6-12-10.8 0-6.3 4.8-10.8 11.2-10.8 6.2 0 10.9 4.1 10.9 10.9 0.1 0.5 0 1.1 0 1.6zm-15.9-3.5h10.3c-0.4-2.7-2.4-4.4-5.1-4.4-2.8 0-4.8 1.7-5.2 4.4z"/>
		<path class="st1" d="m413.4 621.9h-12.7l-2.4 5.8h-6.5l12.2-27.3h6.2l12.2 27.3h-6.6l-2.4-5.8zm-2-4.8-4.3-10.4-4.3 10.4h8.6z"/>
		<path class="st1" d="m435.4 607.2h5.4v4.7h-5.2v15.8h-6.1v-15.8h-3.2v-4.7h3.2v-0.9c0-4.7 2.9-7.8 8.1-7.8 1.7 0 3.5 0.4 4.6 1.1l-1.6 4.4c-0.7-0.5-1.5-0.7-2.5-0.7-1.8 0-2.8 1-2.8 3v0.9h0.1z"/>
		<path class="st1" d="m461.3 626.7c-1.2 0.9-3.1 1.3-5 1.3-5 0-7.8-2.5-7.8-7.5v-8.6h-3.2v-4.7h3.2v-5.1h6.1v5.1h5.2v4.7h-5.2v8.5c0 1.8 1 2.8 2.6 2.8 0.9 0 1.8-0.3 2.5-0.8l1.6 4.3z"/>
		<path class="st1" d="m488.4 618.9h-15.9c0.6 2.6 2.8 4.2 6 4.2 2.2 0 3.8-0.7 5.3-2l3.2 3.5c-1.9 2.2-4.9 3.4-8.7 3.4-7.3 0-12-4.6-12-10.8 0-6.3 4.8-10.8 11.2-10.8 6.2 0 10.9 4.1 10.9 10.9 0.1 0.5 0 1.1 0 1.6zm-16-3.5h10.3c-0.4-2.7-2.4-4.4-5.1-4.4-2.8 0-4.7 1.7-5.2 4.4z"/>
		<path class="st1" d="m509.5 606.4v5.6c-0.5 0-0.9-0.1-1.4-0.1-3.4 0-5.6 1.8-5.6 5.8v9.9h-6.1v-21h5.8v2.8c1.5-1.9 4-3 7.3-3z"/>
		<path class="st1" d="m573.8 600.4-8.9 27.3h-6.9l-6-18.5-6.2 18.5h-6.7l-9-27.3h6.5l6.2 19.2 6.4-19.2h5.8l6.2 19.3 6.4-19.3h6.2z"/>
		<path class="st1" d="m577.6 617.2c0-6.3 4.9-10.8 11.5-10.8 6.7 0 11.5 4.5 11.5 10.8s-4.8 10.8-11.5 10.8c-6.6 0-11.5-4.5-11.5-10.8zm16.9 0c0-3.6-2.3-5.8-5.3-5.8s-5.4 2.2-5.4 5.8 2.3 5.8 5.4 5.8 5.3-2.1 5.3-5.8z"/>
		<path class="st1" d="m621.6 606.4v5.6c-0.5 0-0.9-0.1-1.4-0.1-3.4 0-5.6 1.8-5.6 5.8v9.9h-6.1v-21h5.8v2.8c1.6-1.9 4.1-3 7.3-3z"/>
		<path class="st1" d="m638.2 619.5-2.9 2.9v5.3h-6.1v-28.9h6.1v16.4l8.9-8.4h7.3l-8.7 8.9 9.5 12.1h-7.4l-6.7-8.3z"/>
		<path class="st1" d="m656.3 617.2c0-6.3 4.9-10.8 11.5-10.8 6.7 0 11.5 4.5 11.5 10.8s-4.8 10.8-11.5 10.8c-6.6 0-11.5-4.5-11.5-10.8zm16.9 0c0-3.6-2.3-5.8-5.3-5.8s-5.4 2.2-5.4 5.8 2.3 5.8 5.4 5.8 5.3-2.1 5.3-5.8z"/>
		<path class="st1" d="m708.5 606.7v21h-5.8v-2.5c-1.6 1.8-3.9 2.8-6.5 2.8-5.3 0-9-3-9-9.4v-11.9h6.1v11c0 3.5 1.6 5.1 4.2 5.1 2.8 0 4.8-1.8 4.8-5.7v-10.4h6.2z"/>
		<path class="st1" d="m731.5 626.7c-1.2 0.9-3.1 1.3-5 1.3-5 0-7.8-2.5-7.8-7.5v-8.6h-3.2v-4.7h3.2v-5.1h6.1v5.1h5.2v4.7h-5.2v8.5c0 1.8 1 2.8 2.6 2.8 0.9 0 1.8-0.3 2.5-0.8l1.6 4.3z"/>
	</g>
	<g class="st7">
		<path class="st1" d="m175.9 555.7-19.9-22.7h-11v22.7h-11.6v-56.9h40.9c9.5 0 17.2 7.6 17.2 17.1s-7.7 17.2-17.2 17.2h-2.7l19.9 22.7-15.6-0.1zm3.9-39.9c0-3.1-2.5-5.5-5.5-5.5h-29.3v11.1h29.3c3 0 5.5-2.5 5.5-5.6z"/>
		<path class="st1" d="m256.9 555.7-7.3-11.9h-28.9l-7.3 11.9h-13.7l35.5-56.9 35.4 56.9h-13.7zm-21.8-35-7.3 11.6h14.4l-7.1-11.6z"/>
		<path class="st1" d="m307 528.5-16.9 27.1-35.5-56.9h13.7l21.9 35 16.9-27.1 16.9 27.1 21.8-35h13.7l-35.4 56.9-17.1-27.1z"/>
		<path class="st1" d="m416.4 555.7v-56.9h58v11.5h-46.4v11.1h34.8v11.6h-34.8v22.7h-11.6z"/>
		<path class="st1" d="m487.6 555.7v-56.9h11.6v56.9h-11.6z"/>
		<path class="st1" d="m536.1 555.7v-45.4h-23.2v-11.5h58v11.5h-23.2v45.4h-11.6z"/>
		<path class="st1" d="m596.2 522.8v32.9h-11.6v-56.9l41.1 32.8 0.1-32.8h11.6v56.9l-41.2-32.9z"/>
		<path class="st1" d="m651 555.7v-56.9h58v11.5h-46.4v11.1h34.8v11.6h-34.8v11.1h46.4v11.6h-58z"/>
		<path class="st1" d="m722.7 555.7v-11.6h40.9c3.1 0 5.5-2.5 5.5-5.5 0-3.1-2.5-5.5-5.5-5.5h-23.7c-9.5 0-17.2-7.7-17.2-17.2s7.7-17.1 17.2-17.1h40.9v11.5h-40.9c-3.1 0-5.5 2.5-5.5 5.5 0 3.1 2.5 5.5 5.5 5.5h23.7c9.5 0 17.2 7.7 17.2 17.2s-7.7 17.2-17.2 17.2h-40.9z"/>
		<path class="st1" d="m792.7 555.7v-11.6h40.9c3.1 0 5.5-2.5 5.5-5.5 0-3.1-2.5-5.5-5.5-5.5h-23.7c-9.5 0-17.2-7.7-17.2-17.2s7.7-17.1 17.2-17.1h40.9v11.5h-40.9c-3.1 0-5.5 2.5-5.5 5.5 0 3.1 2.5 5.5 5.5 5.5h23.7c9.5 0 17.2 7.7 17.2 17.2s-7.7 17.2-17.2 17.2h-40.9z"/>
	</g>
</g>
</svg>
